<?xml version="1.0" encoding="utf-8"?>
<svg version="1.2" baseProfile="tiny-ps" xmlns="http://www.w3.org/2000/svg" xmlns:xlink="http://www.w3.org/1999/xlink" x="0px" width="500" zoomAndPan="magnify" viewBox="0 0 375 374.999991" height="500" preserveAspectRatio="xMidYMid meet">
  <title>Beta Debug</title>
  <defs>
    <clipPath id="3670fa12a3">
      <path d="M 37.5 37.5 L 337.5 37.5 L 337.5 337.5 L 37.5 337.5 Z M 37.5 37.5 " />
    </clipPath>
    <clipPath id="d2defc7451">
      <path d="M 37.5 37.5 L 80 37.5 L 80 194 L 37.5 194 Z M 37.5 37.5 " />
    </clipPath>
  </defs>
  <rect x="-37.5" width="450" fill="#ffffff" y="-37.499999" height="449.999989" fill-opacity="1" />
  <rect x="-37.5" width="450" fill="#ffffff" y="-37.499999" height="449.999989" fill-opacity="1" />
  <rect x="-37.5" width="450" fill="#000000" y="-37.499999" height="449.999989" fill-opacity="1" />
  <g>
    <path fill="#ffffff" d="M 187.5 37.5 C 104.65625 37.5 37.503906 104.65625 37.503906 187.503906 C 37.503906 270.347656 104.65625 337.488281 187.5 337.488281 C 270.34375 337.488281 337.492188 270.347656 337.492188 187.503906 C 337.492188 104.65625 270.335938 37.5 187.5 37.5 Z M 186.945312 295.152344 C 127.425781 295.152344 79.183594 246.898438 79.183594 187.378906 C 79.183594 127.859375 127.410156 79.617188 186.945312 79.617188 C 246.484375 79.617188 294.710938 127.863281 294.710938 187.378906 C 294.710938 246.894531 246.460938 295.152344 186.945312 295.152344 Z M 186.945312 295.152344 " fill-opacity="1" fill-rule="nonzero" />
  </g>
  <g>
    <path fill="#ffffff" d="M 79.183594 57.925781 L 79.183594 193.375 L 37.695312 193.375 L 37.695312 57.925781 C 37.695312 46.644531 46.976562 37.5 58.425781 37.5 C 69.871094 37.5 79.152344 46.644531 79.152344 57.925781 Z M 79.183594 57.925781 " fill-opacity="1" fill-rule="nonzero" />
  </g>
  <path fill="#ffffff" d="M 139.863281 218.742188 L 134.671875 218.976562 L 121.863281 233.488281 C 121.722656 233.902344 121.640625 234.324219 121.625 234.757812 C 121.605469 235.191406 121.648438 235.617188 121.757812 236.039062 C 121.863281 236.460938 122.027344 236.859375 122.246094 237.230469 C 122.46875 237.605469 122.738281 237.941406 123.054688 238.234375 C 123.375 238.53125 123.730469 238.773438 124.117188 238.96875 C 124.507812 239.160156 124.914062 239.292969 125.34375 239.367188 C 125.773438 239.441406 126.203125 239.453125 126.632812 239.402344 C 127.0625 239.351562 127.480469 239.242188 127.878906 239.070312 C 131.371094 235.449219 134.863281 231.824219 138.355469 228.203125 L 146.023438 228.300781 L 182.894531 175.179688 L 182.992188 152.527344 L 139.375 152.574219 L 128.703125 141.703125 C 128.292969 141.550781 127.867188 141.457031 127.429688 141.429688 C 126.992188 141.398438 126.5625 141.429688 126.132812 141.527344 C 125.703125 141.621094 125.300781 141.777344 124.917969 141.992188 C 124.535156 142.203125 124.1875 142.46875 123.882812 142.78125 C 123.578125 143.09375 123.320312 143.445312 123.117188 143.835938 C 122.914062 144.222656 122.769531 144.632812 122.683594 145.0625 C 122.601562 145.492188 122.578125 145.925781 122.621094 146.363281 C 122.660156 146.800781 122.765625 147.222656 122.929688 147.628906 L 135.542969 160.382812 L 146.542969 160.433594 C 144.914062 162.671875 143.433594 165.003906 142.09375 167.429688 C 140.53125 170.132812 139.222656 172.953125 138.160156 175.890625 C 136.851562 179.632812 136.042969 183.480469 135.738281 187.433594 L 117.972656 187.386719 C 117.605469 187.660156 117.277344 187.96875 116.980469 188.3125 C 116.6875 188.65625 116.429688 189.03125 116.21875 189.433594 C 116.003906 189.832031 115.835938 190.25 115.714844 190.691406 C 115.59375 191.128906 115.519531 191.574219 115.5 192.027344 C 115.476562 192.480469 115.5 192.929688 115.578125 193.378906 C 115.652344 193.828125 115.777344 194.261719 115.949219 194.679688 C 116.121094 195.101562 116.335938 195.5 116.59375 195.871094 C 116.855469 196.246094 117.148438 196.585938 117.484375 196.894531 L 135.09375 196.847656 C 134.785156 199.246094 134.800781 201.644531 135.140625 204.039062 C 135.457031 206.21875 136.023438 207.945312 137.132812 211.316406 C 137.761719 213.140625 138.65625 215.707031 139.863281 218.742188 Z M 139.863281 218.742188 " fill-opacity="1" fill-rule="nonzero" />
  <path fill="#ffffff" d="M 140.199219 247.269531 C 140.054688 248.140625 140.078125 249.011719 140.273438 249.875 C 140.464844 250.738281 140.8125 251.535156 141.316406 252.265625 C 142.195312 253.523438 143.375 254.347656 144.859375 254.738281 C 145.695312 254.9375 146.542969 254.964844 147.390625 254.820312 C 148.242188 254.679688 149.03125 254.375 149.757812 253.914062 C 178.804688 212.210938 207.851562 170.507812 236.902344 128.800781 C 237.105469 128.007812 237.152344 127.203125 237.039062 126.386719 C 236.929688 125.574219 236.667969 124.8125 236.257812 124.097656 C 235.464844 122.78125 234.335938 121.882812 232.875 121.402344 C 232.074219 121.144531 231.253906 121.039062 230.414062 121.09375 C 229.574219 121.144531 228.773438 121.351562 228.011719 121.710938 Z M 140.199219 247.269531 " fill-opacity="1" fill-rule="nonzero" />
  <path fill="#ffffff" d="M 189.1875 152.527344 C 189.207031 156.992188 189.230469 161.453125 189.261719 165.914062 L 198.679688 152.453125 Z M 189.1875 152.527344 " fill-opacity="1" fill-rule="nonzero" />
  <path fill="#ffffff" d="M 183.085938 215.929688 C 183.054688 226.394531 183.023438 236.855469 182.992188 247.320312 C 181.460938 247.152344 179.394531 246.894531 176.976562 246.394531 C 175.167969 246.066406 173.390625 245.628906 171.636719 245.085938 C 169.203125 244.308594 166.875 243.289062 164.652344 242.03125 C 170.792969 233.328125 176.941406 224.628906 183.085938 215.929688 Z M 183.085938 215.929688 " fill-opacity="1" fill-rule="nonzero" />
  <path fill="#ffffff" d="M 189.222656 206.566406 L 189.222656 247.246094 C 192.007812 247.144531 194.75 246.738281 197.445312 246.03125 C 199.789062 245.394531 202.070312 244.574219 204.285156 243.574219 C 206.890625 242.46875 209.414062 241.199219 211.855469 239.765625 C 214.085938 238.457031 216.222656 237.003906 218.257812 235.402344 C 219.777344 234.214844 221.207031 232.929688 222.550781 231.546875 C 223.480469 230.574219 224.351562 229.554688 225.171875 228.488281 L 234.054688 228.441406 C 237.546875 231.878906 241.042969 235.3125 244.53125 238.753906 C 245.125 239.0625 245.757812 239.238281 246.421875 239.277344 C 247.089844 239.320312 247.738281 239.226562 248.367188 238.992188 C 248.636719 238.890625 248.898438 238.761719 249.144531 238.609375 C 249.390625 238.453125 249.621094 238.277344 249.828125 238.074219 C 250.039062 237.875 250.230469 237.65625 250.394531 237.414062 C 250.5625 237.175781 250.703125 236.925781 250.820312 236.65625 C 250.933594 236.390625 251.023438 236.113281 251.082031 235.828125 C 251.140625 235.542969 251.171875 235.257812 251.175781 234.964844 C 251.175781 234.675781 251.148438 234.386719 251.09375 234.101562 C 251.035156 233.816406 250.953125 233.539062 250.839844 233.269531 L 237.613281 218.792969 L 231.539062 218.792969 C 232.878906 216.765625 233.980469 214.617188 234.851562 212.347656 C 235.753906 209.941406 236.382812 207.46875 236.742188 204.925781 C 237.125 202.183594 237.191406 199.433594 236.933594 196.675781 L 254.351562 196.582031 C 255.449219 195.851562 256.207031 194.867188 256.632812 193.617188 C 257.058594 192.472656 257.058594 191.324219 256.632812 190.175781 C 256.128906 188.980469 255.285156 188.121094 254.09375 187.605469 L 236.324219 187.457031 C 235.917969 185.167969 235.355469 182.921875 234.632812 180.710938 C 233.535156 177.382812 232.363281 175.042969 230.21875 170.769531 C 228.558594 167.457031 227.429688 165.554688 227.066406 164.945312 C 225.949219 163.089844 224.921875 161.5625 224.105469 160.386719 L 236.667969 160.292969 L 249.371094 147.867188 C 249.453125 147.636719 250.183594 145.488281 248.886719 143.601562 C 248.242188 142.695312 247.386719 142.09375 246.3125 141.800781 C 245.289062 141.53125 244.285156 141.59375 243.304688 141.996094 L 232.78125 152.476562 L 227.054688 152.527344 Z M 189.222656 206.566406 " fill-opacity="1" fill-rule="nonzero" />
  <path fill="#ffffff" d="M 156.730469 146.523438 L 203.152344 146.445312 L 212.433594 132.984375 C 211.589844 131.621094 210.667969 130.308594 209.667969 129.054688 C 208.609375 127.707031 207.457031 126.445312 206.210938 125.273438 C 204.875 124.027344 203.441406 122.898438 201.917969 121.890625 L 208.972656 113.921875 C 209.078125 112.722656 208.824219 111.609375 208.210938 110.574219 C 207.714844 109.6875 207.011719 109.019531 206.097656 108.574219 C 204.890625 108.035156 203.664062 107.988281 202.421875 108.429688 L 193.398438 117.777344 C 191.589844 117.355469 189.753906 117.125 187.898438 117.089844 C 184.996094 117.027344 182.15625 117.425781 179.382812 118.285156 L 168.996094 108.097656 C 168.488281 107.921875 167.964844 107.835938 167.425781 107.847656 C 166.886719 107.855469 166.367188 107.960938 165.867188 108.15625 C 165.367188 108.355469 164.914062 108.632812 164.515625 108.992188 C 164.113281 109.351562 163.789062 109.769531 163.539062 110.25 C 163.046875 111.207031 162.910156 112.210938 163.136719 113.265625 L 170.6875 121.960938 C 169.136719 123.003906 167.679688 124.167969 166.324219 125.457031 C 163.457031 128.105469 161.210938 131.210938 159.59375 134.761719 C 158.773438 136.421875 158.125 138.144531 157.640625 139.933594 C 157.070312 142.09375 156.765625 144.289062 156.730469 146.523438 Z M 156.730469 146.523438 " fill-opacity="1" fill-rule="nonzero" />
</svg>