<svg xmlns="http://www.w3.org/2000/svg" xmlns:xlink="http://www.w3.org/1999/xlink" width="400" zoomAndPan="magnify" viewBox="0 0 300 60" height="80" preserveAspectRatio="xMidYMid meet" version="1.0"><defs><g/><clipPath id="ec3659f27f"><path d="M 2.289062 7.179688 L 48.039062 7.179688 L 48.039062 52.929688 L 2.289062 52.929688 Z M 2.289062 7.179688 " clip-rule="nonzero"/></clipPath><clipPath id="7c374f4f9d"><path d="M 2.289062 7.179688 L 9 7.179688 L 9 31 L 2.289062 31 Z M 2.289062 7.179688 " clip-rule="nonzero"/></clipPath></defs><g clip-path="url(#ec3659f27f)"><path fill="#272727" d="M 25.164062 7.179688 C 12.527344 7.179688 2.289062 17.421875 2.289062 30.054688 C 2.289062 42.691406 12.527344 52.929688 25.164062 52.929688 C 37.796875 52.929688 48.035156 42.691406 48.035156 30.054688 C 48.035156 17.421875 37.796875 7.179688 25.164062 7.179688 Z M 25.078125 46.472656 C 16 46.472656 8.644531 39.113281 8.644531 30.039062 C 8.644531 20.960938 16 13.605469 25.078125 13.605469 C 34.15625 13.605469 41.511719 20.960938 41.511719 30.039062 C 41.511719 39.113281 34.152344 46.472656 25.078125 46.472656 Z M 25.078125 46.472656 " fill-opacity="1" fill-rule="nonzero"/></g><g clip-path="url(#7c374f4f9d)"><path fill="#272727" d="M 8.644531 10.296875 L 8.644531 30.953125 L 2.316406 30.953125 L 2.316406 10.296875 C 2.316406 8.574219 3.734375 7.179688 5.476562 7.179688 C 7.222656 7.179688 8.640625 8.574219 8.640625 10.296875 Z M 8.644531 10.296875 " fill-opacity="1" fill-rule="nonzero"/></g><path fill="#272727" d="M 17.898438 34.820312 L 17.105469 34.855469 L 15.152344 37.070312 C 15.054688 37.351562 15.117188 37.589844 15.335938 37.792969 C 15.550781 37.996094 15.796875 38.035156 16.070312 37.921875 C 16.601562 37.367188 17.136719 36.816406 17.667969 36.261719 L 18.835938 36.277344 L 24.460938 28.175781 L 24.472656 24.722656 L 17.824219 24.730469 L 16.195312 23.070312 C 15.914062 22.96875 15.671875 23.023438 15.460938 23.234375 C 15.25 23.449219 15.203125 23.695312 15.316406 23.976562 L 17.238281 25.921875 L 18.917969 25.929688 C 18.667969 26.269531 18.441406 26.625 18.238281 26.996094 C 18 27.40625 17.800781 27.835938 17.636719 28.285156 C 17.4375 28.855469 17.316406 29.441406 17.269531 30.046875 L 14.558594 30.039062 C 14.445312 30.121094 14.359375 30.226562 14.292969 30.351562 C 14.226562 30.472656 14.1875 30.605469 14.183594 30.746094 C 14.175781 30.886719 14.199219 31.019531 14.25 31.152344 C 14.304688 31.28125 14.382812 31.394531 14.484375 31.488281 L 17.171875 31.480469 C 17.125 31.847656 17.125 32.210938 17.175781 32.578125 C 17.226562 32.910156 17.3125 33.175781 17.480469 33.6875 C 17.578125 33.964844 17.714844 34.355469 17.898438 34.820312 Z M 17.898438 34.820312 " fill-opacity="1" fill-rule="nonzero"/><path fill="#272727" d="M 17.949219 39.171875 C 17.902344 39.445312 17.960938 39.703125 18.121094 39.933594 C 18.253906 40.125 18.433594 40.25 18.660156 40.308594 C 18.925781 40.371094 19.175781 40.332031 19.40625 40.183594 C 23.835938 33.824219 28.265625 27.464844 32.695312 21.105469 C 32.761719 20.851562 32.726562 20.613281 32.597656 20.386719 C 32.476562 20.1875 32.304688 20.050781 32.082031 19.976562 C 31.828125 19.894531 31.582031 19.910156 31.339844 20.023438 Z M 17.949219 39.171875 " fill-opacity="1" fill-rule="nonzero"/><path fill="#272727" d="M 25.417969 24.722656 C 25.421875 25.402344 25.425781 26.082031 25.429688 26.765625 L 26.867188 24.710938 Z M 25.417969 24.722656 " fill-opacity="1" fill-rule="nonzero"/><path fill="#272727" d="M 24.488281 34.390625 C 24.484375 35.988281 24.480469 37.582031 24.472656 39.179688 C 24.242188 39.152344 23.925781 39.113281 23.558594 39.039062 C 23.28125 38.988281 23.011719 38.921875 22.742188 38.835938 C 22.371094 38.71875 22.015625 38.5625 21.679688 38.371094 C 22.613281 37.042969 23.550781 35.71875 24.488281 34.390625 Z M 24.488281 34.390625 " fill-opacity="1" fill-rule="nonzero"/><path fill="#272727" d="M 25.425781 32.964844 L 25.425781 39.167969 C 25.851562 39.152344 26.269531 39.089844 26.679688 38.980469 C 27.035156 38.882812 27.382812 38.757812 27.722656 38.605469 C 28.121094 38.4375 28.503906 38.246094 28.875 38.027344 C 29.21875 37.828125 29.542969 37.605469 29.851562 37.359375 C 30.085938 37.179688 30.300781 36.984375 30.507812 36.773438 C 30.648438 36.625 30.78125 36.46875 30.90625 36.304688 L 32.261719 36.300781 C 32.792969 36.824219 33.328125 37.347656 33.859375 37.871094 C 34.050781 37.96875 34.242188 37.984375 34.445312 37.910156 C 34.621094 37.84375 34.742188 37.722656 34.816406 37.550781 C 34.890625 37.378906 34.894531 37.207031 34.820312 37.035156 L 32.804688 34.828125 L 31.878906 34.828125 C 32.082031 34.519531 32.25 34.191406 32.382812 33.84375 C 32.519531 33.476562 32.617188 33.101562 32.671875 32.714844 C 32.730469 32.296875 32.738281 31.875 32.699219 31.457031 L 35.355469 31.441406 C 35.523438 31.328125 35.640625 31.179688 35.703125 30.988281 C 35.769531 30.8125 35.769531 30.640625 35.703125 30.464844 C 35.628906 30.28125 35.5 30.152344 35.316406 30.070312 L 32.609375 30.050781 C 32.546875 29.699219 32.460938 29.355469 32.351562 29.019531 C 32.183594 28.511719 32.003906 28.15625 31.675781 27.503906 C 31.421875 27 31.25 26.710938 31.195312 26.617188 C 31.027344 26.332031 30.867188 26.101562 30.746094 25.921875 L 32.660156 25.90625 L 34.597656 24.011719 C 34.609375 23.976562 34.722656 23.648438 34.523438 23.359375 C 34.425781 23.222656 34.292969 23.132812 34.132812 23.085938 C 33.976562 23.046875 33.820312 23.054688 33.671875 23.117188 L 32.066406 24.714844 L 31.195312 24.722656 Z M 25.425781 32.964844 " fill-opacity="1" fill-rule="nonzero"/><path fill="#272727" d="M 20.46875 23.808594 L 27.550781 23.796875 L 28.964844 21.742188 C 28.835938 21.535156 28.695312 21.335938 28.542969 21.144531 C 28.382812 20.9375 28.207031 20.746094 28.015625 20.566406 C 27.8125 20.375 27.59375 20.203125 27.359375 20.050781 L 28.4375 18.835938 C 28.453125 18.652344 28.414062 18.480469 28.320312 18.324219 C 28.246094 18.1875 28.136719 18.085938 28 18.019531 C 27.8125 17.9375 27.628906 17.929688 27.4375 17.996094 L 26.0625 19.421875 C 25.785156 19.359375 25.507812 19.324219 25.222656 19.316406 C 24.78125 19.308594 24.347656 19.371094 23.925781 19.5 L 22.339844 17.945312 C 22.179688 17.890625 22.019531 17.894531 21.863281 17.957031 C 21.707031 18.019531 21.585938 18.125 21.507812 18.273438 C 21.433594 18.421875 21.414062 18.574219 21.445312 18.734375 L 22.597656 20.0625 C 22.363281 20.21875 22.140625 20.398438 21.933594 20.59375 C 21.496094 21 21.152344 21.472656 20.90625 22.011719 C 20.78125 22.265625 20.683594 22.527344 20.609375 22.800781 C 20.523438 23.132812 20.476562 23.464844 20.46875 23.808594 Z M 20.46875 23.808594 " fill-opacity="1" fill-rule="nonzero"/><g fill="#272727" fill-opacity="1"><g transform="translate(58.355902, 42.456362)"><g><path d="M 3.90625 -29.65625 L 16.78125 -29.65625 C 19.863281 -29.65625 22.289062 -29 24.0625 -27.6875 C 25.84375 -26.375 26.734375 -24.5625 26.734375 -22.25 C 26.734375 -20.582031 26.265625 -19.160156 25.328125 -17.984375 C 24.398438 -16.816406 23.132812 -16.035156 21.53125 -15.640625 C 23.507812 -15.296875 25.0625 -14.457031 26.1875 -13.125 C 27.3125 -11.800781 27.875 -10.140625 27.875 -8.140625 C 27.875 -5.597656 26.914062 -3.601562 25 -2.15625 C 23.082031 -0.71875 20.441406 0 17.078125 0 L 3.90625 0 Z M 8.90625 -25.21875 L 8.90625 -17.375 L 16.53125 -17.375 C 18.113281 -17.375 19.351562 -17.726562 20.25 -18.4375 C 21.15625 -19.144531 21.609375 -20.117188 21.609375 -21.359375 C 21.609375 -22.597656 21.160156 -23.550781 20.265625 -24.21875 C 19.378906 -24.882812 18.132812 -25.21875 16.53125 -25.21875 Z M 8.90625 -12.96875 L 8.90625 -4.453125 L 16.53125 -4.453125 C 18.507812 -4.453125 20.039062 -4.820312 21.125 -5.5625 C 22.207031 -6.3125 22.75 -7.378906 22.75 -8.765625 C 22.75 -10.066406 22.195312 -11.09375 21.09375 -11.84375 C 20 -12.59375 18.476562 -12.96875 16.53125 -12.96875 Z M 8.90625 -12.96875 "/></g></g></g><g fill="#272727" fill-opacity="1"><g transform="translate(86.273113, 42.456362)"><g><path d="M 12.875 -22.71875 C 16.75 -22.71875 19.554688 -21.550781 21.296875 -19.21875 C 23.035156 -16.882812 23.75 -13.613281 23.4375 -9.40625 L 6.40625 -9.40625 C 6.789062 -7.65625 7.601562 -6.273438 8.84375 -5.265625 C 10.09375 -4.265625 11.609375 -3.765625 13.390625 -3.765625 C 15.929688 -3.765625 18.050781 -4.644531 19.75 -6.40625 L 22.328125 -3.640625 C 20.015625 -1.097656 16.910156 0.171875 13.015625 0.171875 C 9.535156 0.171875 6.742188 -0.878906 4.640625 -2.984375 C 2.535156 -5.085938 1.484375 -7.832031 1.484375 -11.21875 C 1.484375 -14.613281 2.539062 -17.367188 4.65625 -19.484375 C 6.78125 -21.609375 9.519531 -22.6875 12.875 -22.71875 Z M 6.3125 -12.96875 L 19.203125 -12.96875 C 19.109375 -14.769531 18.492188 -16.191406 17.359375 -17.234375 C 16.234375 -18.285156 14.753906 -18.8125 12.921875 -18.8125 C 11.140625 -18.8125 9.660156 -18.285156 8.484375 -17.234375 C 7.316406 -16.191406 6.59375 -14.769531 6.3125 -12.96875 Z M 6.3125 -12.96875 "/></g></g></g><g fill="#272727" fill-opacity="1"><g transform="translate(109.191443, 42.456362)"><g><path d="M 15.125 -5.171875 L 16.359375 -1.4375 C 14.492188 -0.332031 12.640625 0.21875 10.796875 0.21875 C 8.960938 0.21875 7.453125 -0.332031 6.265625 -1.4375 C 5.078125 -2.539062 4.484375 -4.179688 4.484375 -6.359375 L 4.484375 -18.046875 L 1.3125 -18.046875 L 1.3125 -21.703125 L 4.484375 -21.703125 L 4.484375 -27.875 L 9.328125 -27.875 L 9.328125 -21.703125 L 15.96875 -21.703125 L 15.96875 -18.046875 L 9.328125 -18.046875 L 9.328125 -7.25 C 9.328125 -6.113281 9.523438 -5.316406 9.921875 -4.859375 C 10.316406 -4.410156 10.921875 -4.1875 11.734375 -4.1875 C 12.640625 -4.1875 13.769531 -4.515625 15.125 -5.171875 Z M 15.125 -5.171875 "/></g></g></g><g fill="#272727" fill-opacity="1"><g transform="translate(124.442017, 42.456362)"><g><path d="M 17.125 0 L 17.125 -2.75 C 15.507812 -0.769531 13.019531 0.21875 9.65625 0.21875 C 7.257812 0.21875 5.335938 -0.4375 3.890625 -1.75 C 2.453125 -3.070312 1.734375 -4.75 1.734375 -6.78125 C 1.734375 -8.84375 2.484375 -10.476562 3.984375 -11.6875 C 5.484375 -12.90625 7.570312 -13.53125 10.25 -13.5625 L 17.078125 -13.5625 L 17.078125 -14.234375 C 17.078125 -15.679688 16.617188 -16.796875 15.703125 -17.578125 C 14.785156 -18.367188 13.453125 -18.765625 11.703125 -18.765625 C 9.523438 -18.765625 7.304688 -18.003906 5.046875 -16.484375 L 3.046875 -19.875 C 4.773438 -20.894531 6.320312 -21.625 7.6875 -22.0625 C 9.0625 -22.5 10.75 -22.71875 12.75 -22.71875 C 15.632812 -22.71875 17.867188 -22.015625 19.453125 -20.609375 C 21.035156 -19.210938 21.835938 -17.269531 21.859375 -14.78125 L 21.90625 0 Z M 10.671875 -3.640625 C 12.398438 -3.640625 13.863281 -4.039062 15.0625 -4.84375 C 16.257812 -5.65625 16.929688 -6.679688 17.078125 -7.921875 L 17.078125 -10 L 10.96875 -10 C 9.363281 -10 8.1875 -9.765625 7.4375 -9.296875 C 6.6875 -8.835938 6.3125 -8.066406 6.3125 -6.984375 C 6.3125 -5.972656 6.695312 -5.160156 7.46875 -4.546875 C 8.25 -3.941406 9.316406 -3.640625 10.671875 -3.640625 Z M 10.671875 -3.640625 "/></g></g></g><g fill="#272727" fill-opacity="1"><g transform="translate(147.275622, 42.456362)"><g/></g></g><g fill="#272727" fill-opacity="1"><g transform="translate(156.214053, 42.456362)"><g><path d="M 3.90625 -29.65625 L 16.0625 -29.65625 C 20.5 -29.65625 24.164062 -28.253906 27.0625 -25.453125 C 29.957031 -22.660156 31.40625 -19.117188 31.40625 -14.828125 C 31.40625 -10.535156 29.945312 -6.988281 27.03125 -4.1875 C 24.125 -1.394531 20.425781 0 15.9375 0 L 3.90625 0 Z M 8.90625 -25.171875 L 8.90625 -4.484375 L 16.1875 -4.484375 C 19.09375 -4.484375 21.515625 -5.453125 23.453125 -7.390625 C 25.390625 -9.328125 26.359375 -11.789062 26.359375 -14.78125 C 26.359375 -17.78125 25.359375 -20.257812 23.359375 -22.21875 C 21.367188 -24.1875 18.90625 -25.171875 15.96875 -25.171875 Z M 8.90625 -25.171875 "/></g></g></g><g fill="#272727" fill-opacity="1"><g transform="translate(187.054322, 42.456362)"><g><path d="M 12.875 -22.71875 C 16.75 -22.71875 19.554688 -21.550781 21.296875 -19.21875 C 23.035156 -16.882812 23.75 -13.613281 23.4375 -9.40625 L 6.40625 -9.40625 C 6.789062 -7.65625 7.601562 -6.273438 8.84375 -5.265625 C 10.09375 -4.265625 11.609375 -3.765625 13.390625 -3.765625 C 15.929688 -3.765625 18.050781 -4.644531 19.75 -6.40625 L 22.328125 -3.640625 C 20.015625 -1.097656 16.910156 0.171875 13.015625 0.171875 C 9.535156 0.171875 6.742188 -0.878906 4.640625 -2.984375 C 2.535156 -5.085938 1.484375 -7.832031 1.484375 -11.21875 C 1.484375 -14.613281 2.539062 -17.367188 4.65625 -19.484375 C 6.78125 -21.609375 9.519531 -22.6875 12.875 -22.71875 Z M 6.3125 -12.96875 L 19.203125 -12.96875 C 19.109375 -14.769531 18.492188 -16.191406 17.359375 -17.234375 C 16.234375 -18.285156 14.753906 -18.8125 12.921875 -18.8125 C 11.140625 -18.8125 9.660156 -18.285156 8.484375 -17.234375 C 7.316406 -16.191406 6.59375 -14.769531 6.3125 -12.96875 Z M 6.3125 -12.96875 "/></g></g></g><g fill="#272727" fill-opacity="1"><g transform="translate(209.972649, 42.456362)"><g><path d="M 16.5625 -22.71875 C 19.757812 -22.71875 22.351562 -21.648438 24.34375 -19.515625 C 26.332031 -17.378906 27.328125 -14.601562 27.328125 -11.1875 C 27.328125 -7.800781 26.351562 -5.0625 24.40625 -2.96875 C 22.457031 -0.875 19.875 0.171875 16.65625 0.171875 C 13.039062 0.171875 10.382812 -1.1875 8.6875 -3.90625 L 8.6875 0 L 3.8125 0 L 3.8125 -31.4375 L 8.6875 -31.4375 L 8.6875 -18.640625 C 10.382812 -21.359375 13.007812 -22.71875 16.5625 -22.71875 Z M 10.609375 -6.03125 C 11.898438 -4.664062 13.546875 -3.984375 15.546875 -3.984375 C 17.554688 -3.984375 19.203125 -4.664062 20.484375 -6.03125 C 21.773438 -7.40625 22.421875 -9.179688 22.421875 -11.359375 C 22.421875 -13.472656 21.773438 -15.210938 20.484375 -16.578125 C 19.203125 -17.953125 17.554688 -18.640625 15.546875 -18.640625 C 13.546875 -18.640625 11.898438 -17.953125 10.609375 -16.578125 C 9.328125 -15.210938 8.6875 -13.472656 8.6875 -11.359375 C 8.6875 -9.179688 9.328125 -7.40625 10.609375 -6.03125 Z M 10.609375 -6.03125 "/></g></g></g><g fill="#272727" fill-opacity="1"><g transform="translate(236.788409, 42.456362)"><g><path d="M 24.0625 -22.546875 L 24.0625 0 L 19.203125 0 L 19.203125 -4.40625 C 17.734375 -1.414062 15.046875 0.109375 11.140625 0.171875 C 8.566406 0.171875 6.546875 -0.601562 5.078125 -2.15625 C 3.609375 -3.707031 2.875 -5.828125 2.875 -8.515625 L 2.875 -22.546875 L 7.75 -22.546875 L 7.75 -9.875 C 7.75 -8.175781 8.210938 -6.835938 9.140625 -5.859375 C 10.078125 -4.890625 11.367188 -4.40625 13.015625 -4.40625 C 14.898438 -4.4375 16.398438 -5.109375 17.515625 -6.421875 C 18.640625 -7.734375 19.203125 -9.40625 19.203125 -11.4375 L 19.203125 -22.546875 Z M 24.0625 -22.546875 "/></g></g></g><g fill="#272727" fill-opacity="1"><g transform="translate(262.460356, 42.456362)"><g><path d="M 23.9375 -22.546875 L 23.9375 -2.203125 C 23.9375 1.015625 22.875 3.578125 20.75 5.484375 C 18.632812 7.390625 15.800781 8.34375 12.25 8.34375 C 8.914062 8.34375 5.789062 7.351562 2.875 5.375 L 4.953125 1.859375 C 7.160156 3.503906 9.519531 4.328125 12.03125 4.328125 C 14.175781 4.328125 15.890625 3.742188 17.171875 2.578125 C 18.460938 1.421875 19.109375 -0.128906 19.109375 -2.078125 L 19.109375 -4.921875 C 17.523438 -2.378906 15.039062 -1.109375 11.65625 -1.109375 C 8.601562 -1.109375 6.144531 -2.109375 4.28125 -4.109375 C 2.414062 -6.117188 1.484375 -8.742188 1.484375 -11.984375 C 1.484375 -15.179688 2.398438 -17.757812 4.234375 -19.71875 C 6.066406 -21.6875 8.484375 -22.6875 11.484375 -22.71875 C 14.929688 -22.738281 17.472656 -21.46875 19.109375 -18.90625 L 19.109375 -22.546875 Z M 12.625 -4.921875 C 14.519531 -4.921875 16.070312 -5.566406 17.28125 -6.859375 C 18.5 -8.160156 19.109375 -9.828125 19.109375 -11.859375 C 19.109375 -13.898438 18.507812 -15.5625 17.3125 -16.84375 C 16.113281 -18.125 14.550781 -18.765625 12.625 -18.765625 C 10.707031 -18.765625 9.140625 -18.125 7.921875 -16.84375 C 6.710938 -15.5625 6.09375 -13.898438 6.0625 -11.859375 C 6.09375 -9.828125 6.707031 -8.160156 7.90625 -6.859375 C 9.101562 -5.566406 10.675781 -4.921875 12.625 -4.921875 Z M 12.625 -4.921875 "/></g></g></g></svg>